<svg height="1em" viewBox="0 0 64 64" width="1em" xmlns="http://www.w3.org/2000/svg"><path d="m30 45h-3v4h10v-4h-3z" fill="#9bc9ff"/><path d="m27 49h10v4h-10z" fill="#9bc9ff"/><path d="m27 55a2 2 0 0 0 2 2h6a2 2 0 0 0 2-2v-2h-10z" fill="#9bc9ff"/><path d="m29 58a3 3 0 0 0 6 0v-1h-6z" fill="#9bc9ff"/><path d="m34 35.81a11 11 0 1 0 -4 0 10.621 10.621 0 0 0 4 0z" fill="none"/><path d="m32 36a11.07 11.07 0 0 1 -2-.19v9.19h4v-9.19a11.07 11.07 0 0 1 -2 .19z" fill="#9bc9ff"/><circle cx="32" cy="25" fill="#9bc9ff" r="11"/><g fill="#1e81ce"><path d="m28 29a1 1 0 0 1 -.707-.293l-3-3a1 1 0 0 1 0-1.414l3-3a1 1 0 0 1 1.414 1.414l-2.293 2.293 2.293 2.293a1 1 0 0 1 -.707 1.707z"/><path d="m36 29a1 1 0 0 1 -.707-1.707l2.293-2.293-2.293-2.293a1 1 0 0 1 1.414-1.414l3 3a1 1 0 0 1 0 1.414l-3 3a1 1 0 0 1 -.707.293z"/><path d="m31 30a.976.976 0 0 1 -.244-.03 1 1 0 0 1 -.727-1.213l2-8a1 1 0 0 1 1.94.486l-2 8a1 1 0 0 1 -.969.757z"/><path d="m32 6a1 1 0 0 1 -1-1v-2a1 1 0 0 1 2 0v2a1 1 0 0 1 -1 1z"/><path d="m22 8.68a1 1 0 0 1 -.867-.5l-1-1.733a1 1 0 0 1 1.732-1l1 1.733a1 1 0 0 1 -.865 1.5z"/><path d="m14.679 16a.992.992 0 0 1 -.5-.134l-1.733-1a1 1 0 0 1 1-1.732l1.733 1a1 1 0 0 1 -.5 1.866z"/><path d="m12 26h-2a1 1 0 0 1 0-2h2a1 1 0 0 1 0 2z"/><path d="m12.948 37a1 1 0 0 1 -.5-1.866l1.733-1a1 1 0 1 1 1 1.732l-1.733 1a.992.992 0 0 1 -.5.134z"/><path d="m21 45.053a1 1 0 0 1 -.865-1.5l1-1.733a1 1 0 0 1 1.732 1l-1 1.733a1 1 0 0 1 -.867.5z"/><path d="m43 45.053a1 1 0 0 1 -.867-.5l-1-1.733a1 1 0 1 1 1.732-1l1 1.733a1 1 0 0 1 -.865 1.5z"/><path d="m51.052 37a.992.992 0 0 1 -.5-.134l-1.733-1a1 1 0 1 1 1-1.732l1.733 1a1 1 0 0 1 -.5 1.866z"/><path d="m54 26h-2a1 1 0 0 1 0-2h2a1 1 0 0 1 0 2z"/><path d="m49.321 16a1 1 0 0 1 -.5-1.866l1.733-1a1 1 0 0 1 1 1.732l-1.733 1a.992.992 0 0 1 -.5.134z"/><path d="m42 8.68a1 1 0 0 1 -.865-1.5l1-1.733a1 1 0 0 1 1.732 1l-1 1.733a1 1 0 0 1 -.867.5z"/><path d="m32.858 8.021a17 17 0 0 0 -10.058 31.271 4.878 4.878 0 0 1 2.2 4.14v.568a1.993 1.993 0 0 0 1 1.722v9.278a3 3 0 0 0 2 2.816v.184a4 4 0 0 0 8 0v-.184a3 3 0 0 0 2-2.816v-9.278a1.993 1.993 0 0 0 1-1.722v-.674a4.967 4.967 0 0 1 2.327-4.115 17 17 0 0 0 -8.469-31.19zm-.858 26.979a10 10 0 1 1 10-10 10.011 10.011 0 0 1 -10 10zm-1 1.949c.331.028.662.051 1 .051s.669-.023 1-.051v7.051h-2zm5 9.051v2h-8v-2zm-8 4h8v2h-8zm4 10a2 2 0 0 1 -2-2h4a2 2 0 0 1 -2 2zm4-5a1 1 0 0 1 -1 1h-6a1 1 0 0 1 -1-1v-1h8zm4.23-17.46a6.956 6.956 0 0 0 -3.23 5.786v.674h-2v-7.4a12 12 0 1 0 -6 0v7.4h-2v-.568a6.869 6.869 0 0 0 -3.122-5.822 15 15 0 0 1 8.115-27.61q.382 0 .766.019a15 15 0 0 1 7.471 27.521z"/></g></svg>