<svg id="Capa_1" enable-background="new 0 0 512 512" height="512" viewBox="0 0 512 512" width="512" xmlns="http://www.w3.org/2000/svg"><g><path d="m49.848 460.982-1.679-45.006c-.325-8.703-3.101-17.138-8.01-24.332l-29.754-43.604c-13.55-19.857-13.892-45.897-.868-66.103l48.942-75.812 35.847 111.588-13.456 143.624-27.079 3.04c-2.051.23-3.866-1.332-3.943-3.395z" fill="#f1d0a5"/><path d="m462.152 460.982 1.679-45.006c.325-8.703 3.101-17.138 8.01-24.332l29.754-43.604c13.55-19.857 13.892-45.897.868-66.103l-48.575-75.337-36.213 111.113 13.455 143.625 27.079 3.04c2.051.229 3.866-1.333 3.943-3.396z" fill="#f1d0a5"/><path d="m502.464 281.936-48.576-75.337-6.75 24.864 32.533 50.472c13.024 20.206 12.682 46.246-.868 66.104l-29.754 43.604c-4.909 7.194-7.686 15.628-8.01 24.331l-1.726 46.281 18.897 2.121c2.052.23 3.867-1.332 3.944-3.395l1.679-45.006c.325-8.703 3.101-17.138 8.01-24.332l29.754-43.604c13.549-19.857 13.891-45.897.867-66.103z" fill="#f1b986"/><path d="m431.099 328.12h-350.198c-12.995 0-23.529-10.534-23.529-23.529v-233.461c0-12.995 10.534-23.529 23.529-23.529h350.199c12.995 0 23.529 10.534 23.529 23.529v233.461c0 12.995-10.535 23.529-23.53 23.529z" fill="#365e7d"/><path d="m431.099 47.6h-15.977c12.995 0 23.529 10.535 23.529 23.529v233.461c0 12.995-10.534 23.529-23.529 23.529h15.977c12.995 0 23.53-10.534 23.53-23.529v-233.46c0-12.995-10.535-23.53-23.53-23.53z" fill="#2b4d66"/><path d="m420.871 80.078h-320.92c-.705 0-1.28.607-1.28 1.353v212.858c0 .746.574 1.353 1.28 1.353h320.92c.706 0 1.28-.607 1.28-1.353v-212.858c0-.745-.574-1.353-1.28-1.353z" fill="#d3effb"/><path d="m420.871 80.078h-17.093c.706 0 1.281.607 1.281 1.353v212.858c0 .746-.574 1.353-1.281 1.353h17.093c.706 0 1.281-.607 1.281-1.353v-212.858c-.001-.745-.575-1.353-1.281-1.353z" fill="#b1e4f9"/><path d="m230.177 266.802h-76.532c-3.478 0-6.297-2.819-6.297-6.297v-50.733c0-3.478 2.819-6.297 6.297-6.297h76.532c3.478 0 6.297 2.819 6.297 6.297v50.733c-.001 3.477-2.82 6.297-6.297 6.297z" fill="#f6f1f1"/><path d="m230.177 203.475h-17.725c3.478 0 6.297 2.819 6.297 6.297v50.733c0 3.478-2.819 6.297-6.297 6.297h17.725c3.478 0 6.297-2.819 6.297-6.297v-50.733c-.001-3.478-2.82-6.297-6.297-6.297z" fill="#dae4ea"/><path d="m186.128 243.144-27.993 23.658h67.552l-27.993-23.658c-3.339-2.822-8.227-2.822-11.566 0z" fill="#95d6a4"/><g><path d="m168.921 234.363c-4.268 0-7.726-3.459-7.726-7.726v-5.227c0-4.268 3.459-7.726 7.726-7.726 4.268 0 7.726 3.459 7.726 7.726v5.227c.001 4.267-3.458 7.726-7.726 7.726z" fill="#ffc250"/></g><g><path d="m373.474 218.97h-92.745c-4.268 0-7.726-3.459-7.726-7.726 0-4.268 3.459-7.726 7.726-7.726h92.745c4.268 0 7.726 3.459 7.726 7.726.001 4.267-3.458 7.726-7.726 7.726z" fill="#365e7d"/></g><g><path d="m373.474 242.865h-92.745c-4.268 0-7.726-3.459-7.726-7.726s3.459-7.726 7.726-7.726h92.745c4.268 0 7.726 3.459 7.726 7.726s-3.458 7.726-7.726 7.726z" fill="#365e7d"/></g><g><path d="m373.474 266.759h-92.745c-4.268 0-7.726-3.459-7.726-7.726 0-4.268 3.459-7.726 7.726-7.726h92.745c4.268 0 7.726 3.459 7.726 7.726.001 4.267-3.458 7.726-7.726 7.726z" fill="#365e7d"/></g><path d="m230.177 172.246h-76.532c-3.478 0-6.297-2.819-6.297-6.297v-50.733c0-3.478 2.819-6.297 6.297-6.297h76.532c3.478 0 6.297 2.819 6.297 6.297v50.733c-.001 3.478-2.82 6.297-6.297 6.297z" fill="#f6f1f1"/><path d="m230.177 108.919h-17.725c3.478 0 6.297 2.819 6.297 6.297v50.733c0 3.478-2.819 6.297-6.297 6.297h17.725c3.478 0 6.297-2.819 6.297-6.297v-50.733c-.001-3.477-2.82-6.297-6.297-6.297z" fill="#dae4ea"/><path d="m186.128 148.588-27.993 23.658h67.552l-27.993-23.658c-3.339-2.822-8.227-2.822-11.566 0z" fill="#95d6a4"/><g><path d="m168.921 139.806c-4.268 0-7.726-3.459-7.726-7.726v-5.226c0-4.268 3.459-7.726 7.726-7.726 4.268 0 7.726 3.459 7.726 7.726v5.226c.001 4.267-3.458 7.726-7.726 7.726z" fill="#ffc250"/></g><g><path d="m373.474 124.415h-92.745c-4.268 0-7.726-3.459-7.726-7.726 0-4.268 3.459-7.726 7.726-7.726h92.745c4.268 0 7.726 3.459 7.726 7.726.001 4.267-3.458 7.726-7.726 7.726z" fill="#365e7d"/></g><g><path d="m373.474 148.309h-92.745c-4.268 0-7.726-3.459-7.726-7.726 0-4.268 3.459-7.726 7.726-7.726h92.745c4.268 0 7.726 3.459 7.726 7.726.001 4.267-3.458 7.726-7.726 7.726z" fill="#365e7d"/></g><g><path d="m373.474 172.204h-92.745c-4.268 0-7.726-3.459-7.726-7.726 0-4.268 3.459-7.726 7.726-7.726h92.745c4.268 0 7.726 3.459 7.726 7.726.001 4.267-3.458 7.726-7.726 7.726z" fill="#365e7d"/></g><g><path d="m78.223 201.166c-4.268 0-7.726-3.459-7.726-7.726v-11.159c0-4.268 3.459-7.726 7.726-7.726 4.268 0 7.726 3.459 7.726 7.726v11.159c0 4.268-3.458 7.726-7.726 7.726z" fill="#2b4d66"/></g><path d="m116.612 454.363.76-32.695c.133-5.71 1.159-11.363 3.042-16.755 5.289-15.146 2.294-31.954-7.902-44.34-2.146-2.607-2.482-6.261-.846-9.216l43.331-78.288c3.514-6.349 2.352-14.263-2.838-19.335-6.498-6.349-16.956-6.077-23.115.602l-72.078 78.164 4.742 54.473 19.161 74.365 32.575-3.528c1.772-.192 3.127-1.667 3.168-3.447z" fill="#f1d0a5"/><path d="m154.997 273.068c3.514-6.349 2.352-14.263-2.838-19.334-5.855-5.72-14.914-6.048-21.157-1.175.465.364.918.753 1.35 1.175 5.19 5.071 6.352 12.986 2.838 19.334l-43.331 78.288c-1.635 2.955-1.3 6.609.847 9.216 10.196 12.387 13.191 29.194 7.902 44.341-1.883 5.392-2.909 11.046-3.042 16.755l-.585 25.185c-.141 6.078-4.765 11.111-10.809 11.765l-3.695.4c-1.13.122-1.888 1.218-1.605 2.319l32.575-3.528c1.771-.192 3.125-1.666 3.167-3.447l.738-31.724c.14-6.013 1.061-12.008 3.05-17.684 5.31-15.157 2.318-31.985-7.887-44.383-2.146-2.607-2.482-6.261-.847-9.216z" fill="#f1b986"/><path d="m395.388 454.363-.76-32.695c-.133-5.71-1.159-11.363-3.042-16.755-5.289-15.146-2.294-31.954 7.902-44.34 2.146-2.607 2.482-6.261.846-9.216l-43.331-78.288c-3.514-6.349-2.352-14.263 2.838-19.335 6.498-6.349 16.956-6.077 23.115.602l72.078 78.164-4.742 54.473-19.161 74.365-32.575-3.528c-1.772-.192-3.127-1.667-3.168-3.447z" fill="#f1d0a5"/></g></svg>